<svg xmlns="http://www.w3.org/2000/svg" width="49" height="18" fill-rule="evenodd" xmlns:v="https://vecta.io/nano"><path d="M45.917 6.885c0-.53.412-.96.915-.96s.912.43.912.96-.407.96-.912.96-.915-.43-.915-.96zm.915.734c.384 0 .697-.33.697-.734s-.313-.73-.697-.73-.698.327-.698.73.315.734.698.734zm-.125-.313h-.187V6.46h.34c.07 0 .146.004.205.046.065.048.103.128.103.213 0 .094-.054.182-.138.213l.146.374h-.208l-.124-.332h-.137v.332zm0-.476h.105c.038 0 .082.002.114-.017s.046-.062.046-.098-.018-.07-.046-.085-.084-.015-.117-.015h-.102v.215zM32.844.496l-.25 1.63c-.544-.3-.943-.403-1.37-.403-1.14 0-1.945 1.157-1.945 2.8 0 1.142.54 1.83 1.43 1.83.378 0 .792-.122 1.3-.388L31.742 7.7c-.562.16-.928.22-1.352.22-1.65 0-2.676-1.244-2.676-3.242 0-2.686 1.418-4.562 3.446-4.562.262 0 .496.025.686.08l.63.166.368.145zm-5.077 1.117a.79.79 0 0 0-.157-.016c-.504 0-.8.266-1.257.994l.136-.928h-1.386l-.94 6.108H25.7c.55-3.733.7-4.378 1.427-4.378.045 0 .05 0 .112.006.136-.736.322-1.277.58-1.77l-.053-.016zm-9.16 6.083c-.415.138-.744.2-1.097.2-.78 0-1.207-.475-1.207-1.343a3.47 3.47 0 0 1 .043-.548l.095-.595.07-.487.664-4.167h1.52l-.174.906h.783l-.215 1.485h-.78l-.405 2.55-.025.253c0 .312.16.452.52.452a1.18 1.18 0 0 0 .413-.057l-.204 1.35zm-6.03-4.102c0 .77.355 1.304 1.16 1.703.615.306.713.395.713.673 0 .38-.273.556-.875.556a4.04 4.04 0 0 1-1.368-.245l-.212 1.41.07.014.28.06a4.7 4.7 0 0 0 .4.055l.842.05c1.604 0 2.347-.647 2.347-2.038 0-.836-.3-1.33-1.074-1.7-.638-.305-.7-.376-.7-.66 0-.33.252-.502.744-.502a8.43 8.43 0 0 1 1.094.091l.218-1.4a9.54 9.54 0 0 0-1.342-.12c-1.703 0-2.293.937-2.287 2.064zM45.03 7.77h-1.45l.076-.598c-.42.473-.854.68-1.413.68-1.12 0-1.852-1.01-1.852-2.536 0-2.032 1.14-3.747 2.492-3.747.595 0 1.044.258 1.467.836L44.684.26h1.508l-1.163 7.5zm-2.26-1.437c.715 0 1.215-.85 1.215-2.058 0-.776-.286-1.2-.814-1.2-.693 0-1.186.853-1.186 2.055 0 .8.265 1.203.785 1.203zm-19.318 1.31c-.523.165-1.03.248-1.572.246-1.706 0-2.597-.94-2.597-2.734 0-2.1 1.134-3.644 2.675-3.644 1.257 0 2.064.866 2.064 2.223 0 .45-.054.887-.2 1.506H20.79a1.23 1.23 0 0 0-.015.2c0 .713.455 1.073 1.346 1.073.545 0 1.037-.118 1.587-.388l-.256 1.528zm-.858-3.637l.01-.31c0-.5-.27-.8-.724-.8-.485 0-.832.39-.975 1.095l1.69.004zM6.435 7.77H4.907L5.782 2 3.826 7.77H2.78l-.127-5.738L1.73 7.77H.298L1.493.26h2.202l.06 4.647L5.243.26H7.62zm3.938-2.72l-.342-.026c-.867 0-1.306.315-1.306.932 0 .38.216.623.55.623.622 0 1.073-.623 1.098-1.53zm1.113 2.72H10.22l.028-.633c-.386.505-.902.74-1.603.74-.832 0-1.4-.68-1.4-1.664 0-1.49.993-2.357 2.7-2.357a4.61 4.61 0 0 1 .621.045c.048-.202.06-.29.06-.396 0-.403-.265-.557-.982-.557-.433 0-.93.066-1.272.175l-.213.062-.134.04.2-1.37c.765-.238 1.268-.33 1.834-.33 1.315 0 2.012.62 2.012 1.79 0 .304-.023.53-.127 1.212l-.32 2.164-.052.4-.04.312-.026.213-.02.164zM35.48 5.05l-.34-.026c-.87 0-1.3.315-1.3.932 0 .38.218.623.552.623.625 0 1.07-.623 1.098-1.53zm1.114 2.72h-1.27l.03-.633c-.386.505-.903.74-1.603.74-.832 0-1.402-.68-1.402-1.664 0-1.49.99-2.357 2.69-2.357a4.61 4.61 0 0 1 .622.045c.047-.202.06-.29.06-.396 0-.403-.265-.557-.982-.557-.435 0-.93.066-1.27.175l-.218.062-.132.04.213-1.37c.764-.238 1.266-.33 1.83-.33 1.316 0 2.012.62 2.012 1.79 0 .304-.026.53-.125 1.212l-.323 2.164-.047.4-.043.312-.028.213-.016.164zm4.273-6.157a.7.7 0 0 0-.154-.016c-.502 0-.8.266-1.26.994l.137-.928h-1.384L37.27 7.77h1.53c.55-3.733.695-4.378 1.427-4.378.048 0 .044-.004.107.006.14-.736.326-1.277.583-1.77l-.052-.016z" fill="#ec2127"/><path d="M34.446 13.693c0 1.385-.428 2.2-1.104 2.2-.493.016-.792-.534-.792-1.356 0-.973.437-2.075 1.138-2.075.563 0 .758.597.758 1.23zm1.505.026c0-1.54-.76-2.737-2.2-2.737-1.645 0-2.7 1.457-2.7 3.6 0 1.535.63 2.8 2.187 2.8 1.572 0 2.713-1.112 2.713-3.654zm-4.41-3.82l-.234 1.628c-.5-.287-.88-.406-1.28-.406-1.07 0-1.815 1.162-1.815 2.815 0 1.14.5 1.83 1.333 1.83.355 0 .743-.12 1.215-.387l-.248 1.714c-.528.162-.874.218-1.266.218-1.54 0-2.5-1.245-2.5-3.242 0-2.688 1.324-4.564 3.22-4.564a2.46 2.46 0 0 1 .643.08l.585.167.346.146zm-9.46 1.12a.56.56 0 0 0-.147-.017c-.464 0-.736.268-1.17.993l.126-.927h-1.294l-.873 6.1h1.428c.514-3.737.65-4.38 1.335-4.38a.64.64 0 0 1 .105.007c.128-.74.302-1.28.542-1.775l-.052-.01zm18.66 6.092h-1.35l.07-.596c-.392.47-.8.678-1.323.678-1.04 0-1.728-1-1.728-2.536 0-2.028 1.066-3.75 2.328-3.75.556 0 .978.263 1.368.842l.316-2.148h1.406l-1.087 7.5zm-2.1-1.436c.672 0 1.136-.848 1.136-2.058 0-.78-.265-1.197-.756-1.197-.65 0-1.1.85-1.1 2.055 0 .796.247 1.2.73 1.2zm-29.944 1.4a4.39 4.39 0 0 1-1.463.25c-1.595 0-2.428-.94-2.428-2.735 0-2.097 1.06-3.643 2.497-3.643 1.178 0 1.928.865 1.928 2.222 0 .448-.05.888-.173 1.507H6.2l-.012.2c0 .712.426 1.07 1.255 1.07.5 0 .972-.12 1.484-.387l-.24 1.526zM7.9 13.452v-.3c0-.498-.25-.8-.675-.8-.456 0-.78.392-.912 1.094l1.577.006zm17.792 3.634a4.41 4.41 0 0 1-1.464.25c-1.6 0-2.43-.94-2.43-2.735 0-2.097 1.06-3.643 2.497-3.643 1.177 0 1.93.865 1.93 2.222 0 .448-.053.888-.18 1.507h-2.84l-.014.2c0 .712.425 1.07 1.254 1.07.5 0 .973-.12 1.485-.387l-.238 1.526zm-.804-3.634l.015-.3c0-.498-.253-.8-.676-.8-.456 0-.78.392-.912 1.094l1.573.006zm20.74 3.634a4.44 4.44 0 0 1-1.468.249c-1.595 0-2.43-.94-2.43-2.735 0-2.097 1.063-3.643 2.5-3.643 1.177 0 1.927.865 1.927 2.222 0 .448-.05.888-.176 1.507h-2.844l-.012.2c0 .712.427 1.07 1.255 1.07.512 0 .972-.12 1.485-.387l-.237 1.526zm-.803-3.634l.01-.3c0-.498-.25-.8-.675-.8-.456 0-.78.392-.912 1.094l1.577.006zM4.458 11.296c-.28-.187-.66-.35-1.194-.35-.577 0-1.042.12-1.042.734 0 1.085 2.106.68 2.106 3.003 0 2.117-1.4 2.665-2.647 2.665-.56 0-1.203-.185-1.678-.395l.342-1.556c.286.26.863.438 1.336.438.45 0 1.155-.122 1.155-.908 0-1.23-2.105-.772-2.105-2.93 0-1.974 1.23-2.567 2.416-2.567.667 0 1.295.098 1.663.343l-.352 1.522zm8.412 5.8c-.295.142-.7.235-1.27.235-1.248 0-2.022-1.248-2.022-2.767 0-2 1.12-3.575 2.768-3.575.36 0 .908.155 1.34.406l-.316 1.46c-.306-.202-.625-.33-.954-.33-.763 0-1.3.7-1.3 1.955 0 .722.396 1.314 1.02 1.314.373 0 .635-.078.955-.266l-.214 1.57zm5.16.055h-1.374l.116-.988h-.014c-.43.67-.877 1.128-1.655 1.128-.864 0-1.332-.9-1.332-2.095 0-.4.026-.64.117-1.28l.4-2.827h1.53l-.4 2.836c-.042.304-.1.606-.1.92 0 .358.162.72.575.697.627 0 .998-.767 1.103-1.663l.422-2.8H18.9l-.667 4.476-.182 1.584zm29.012-.076h-.23v-1.013h-.335v-.217h.9v.217h-.335zm1.534 0h-.216v-1.028h-.003l-.207 1.028h-.226l-.202-1.028h-.003v1.028h-.216v-1.23h.338l.2.97h.003l.198-.97h.334z" fill="#f89620"/></svg>