<svg width="84" height="58" viewBox="0 0 84 58" fill="none" xmlns="http://www.w3.org/2000/svg">
<rect x="0.5" y="0.5" width="83" height="57" rx="3.5" fill="white" stroke="#F3F3F3"/>
<path d="M49.6664 37.8231H35.3055V12.1856H49.6664V37.8231Z" fill="#6C6BBD"/>
<path d="M36.2171 25.0048C36.2171 19.8042 38.6683 15.1715 42.4855 12.1861C39.6941 10.003 36.1712 8.69999 32.3425 8.69999C23.2785 8.69999 15.931 15.9998 15.931 25.0048C15.931 34.0099 23.2785 41.3097 32.3425 41.3097C36.1712 41.3097 39.6941 40.0067 42.4855 37.8236C38.6683 34.8381 36.2171 30.2055 36.2171 25.0048Z" fill="#EB001B"/>
<path d="M69.0409 25.0048C69.0409 34.0099 61.6934 41.3097 52.6294 41.3097C48.8007 41.3097 45.2778 40.0067 42.4853 37.8236C46.3036 34.8381 48.7548 30.2055 48.7548 25.0048C48.7548 19.8042 46.3036 15.1715 42.4853 12.1861C45.2778 10.003 48.8007 8.69999 52.6294 8.69999C61.6934 8.69999 69.0409 15.9998 69.0409 25.0048Z" fill="#0099DF"/>
<path d="M54.5254 45.0674C54.7163 45.0674 54.9908 45.1037 55.2005 45.1856L54.9083 46.0729C54.708 45.991 54.5076 45.9641 54.3156 45.9641C53.6958 45.9641 53.3859 46.3622 53.3859 47.0774V49.5052H52.4373V45.1763H53.3765V45.7018C53.6227 45.3214 53.9786 45.0674 54.5254 45.0674Z" fill="#231F20"/>
<path d="M51.0213 46.0367H49.4717V47.9927C49.4717 48.4271 49.6261 48.7173 50.1009 48.7173C50.3472 48.7173 50.6571 48.6354 50.9389 48.4727L51.2123 49.2781C50.9117 49.4865 50.438 49.614 50.0279 49.614C48.9061 49.614 48.5148 49.0159 48.5148 48.0104V46.0367H47.6298V45.1763H48.5148V43.8629H49.4717V45.1763H51.0213V46.0367Z" fill="#231F20"/>
<path fill-rule="evenodd" clip-rule="evenodd" d="M40.0623 45.0674C41.2842 45.0674 42.1232 45.991 42.1326 47.3407C42.1326 47.4662 42.1234 47.5824 42.1141 47.6996L42.1138 47.7025H38.8779C39.0146 48.481 39.5708 48.7619 40.1812 48.7619C40.6185 48.7619 41.0839 48.5992 41.4481 48.3089L41.9135 49.0066C41.3844 49.4502 40.7833 49.613 40.127 49.613C38.8226 49.613 37.8928 48.7163 37.8928 47.3407C37.8928 45.991 38.786 45.0674 40.0623 45.0674ZM40.0446 45.9092C39.3694 45.9092 38.9875 46.3352 38.8863 46.9603H41.1476C41.0474 46.2896 40.655 45.9092 40.0446 45.9092Z" fill="#231F20"/>
<path d="M46.2983 46.2813C46.0343 46.1175 45.4969 45.9092 44.9407 45.9092C44.421 45.9092 44.1111 46.0999 44.1111 46.4171C44.1111 46.7063 44.4388 46.7882 44.8489 46.8421L45.2955 46.9053C46.2441 47.0422 46.818 47.4402 46.818 48.2011C46.818 49.0252 46.0886 49.614 44.8311 49.614C44.1195 49.614 43.4631 49.4326 42.9434 49.0522L43.39 48.3182C43.7094 48.5629 44.1842 48.7712 44.8405 48.7712C45.4875 48.7712 45.834 48.5815 45.834 48.2457C45.834 48.0021 45.5877 47.8652 45.068 47.7937L44.6214 47.7305C43.6457 47.5936 43.1166 47.1593 43.1166 46.4534C43.1166 45.593 43.8283 45.0674 44.9313 45.0674C45.6242 45.0674 46.2535 45.2219 46.7084 45.5204L46.2983 46.2813Z" fill="#231F20"/>
<path fill-rule="evenodd" clip-rule="evenodd" d="M58.9301 45.2426C58.6421 45.1255 58.3291 45.0674 57.991 45.0674C57.6529 45.0674 57.3398 45.1255 57.0518 45.2426C56.7638 45.3587 56.5165 45.5194 56.3078 45.7236C56.0991 45.9278 55.9352 46.1693 55.8163 46.4472C55.6973 46.726 55.6378 47.0287 55.6378 47.3552C55.6378 47.6818 55.6973 47.9845 55.8163 48.2633C55.9352 48.5411 56.0991 48.7837 56.3078 48.9879C56.5165 49.1921 56.7638 49.3517 57.0518 49.4689C57.3398 49.585 57.6529 49.643 57.991 49.643C58.3291 49.643 58.6421 49.585 58.9301 49.4689C59.2181 49.3517 59.4675 49.1921 59.6773 48.9879C59.8881 48.7837 60.0519 48.5411 60.1709 48.2633C60.2898 47.9845 60.3493 47.6818 60.3493 47.3552C60.3493 47.0287 60.2898 46.726 60.1709 46.4472C60.0519 46.1693 59.8881 45.9278 59.6773 45.7236C59.4675 45.5194 59.2181 45.3587 58.9301 45.2426ZM57.4473 46.0636C57.6153 45.9962 57.7958 45.962 57.991 45.962C58.1861 45.962 58.3677 45.9962 58.5346 46.0636C58.7026 46.132 58.8487 46.2274 58.9708 46.3497C59.095 46.472 59.191 46.6192 59.262 46.7903C59.3319 46.9613 59.3663 47.15 59.3663 47.3552C59.3663 47.5615 59.3319 47.7491 59.262 47.9202C59.191 48.0912 59.095 48.2384 58.9708 48.3607C58.8487 48.4831 58.7026 48.5784 58.5346 48.6468C58.3677 48.7153 58.1861 48.7484 57.991 48.7484C57.7958 48.7484 57.6153 48.7153 57.4473 48.6468C57.2803 48.5784 57.1353 48.4831 57.0132 48.3607C56.8911 48.2384 56.7951 48.0912 56.7252 47.9202C56.6552 47.7491 56.6208 47.5615 56.6208 47.3552C56.6208 47.15 56.6552 46.9613 56.7252 46.7903C56.7951 46.6192 56.8911 46.472 57.0132 46.3497C57.1353 46.2274 57.2803 46.132 57.4473 46.0636Z" fill="#231F20"/>
<path fill-rule="evenodd" clip-rule="evenodd" d="M36.8754 45.1763V49.5052H35.9279V48.9796C35.6263 49.3694 35.1713 49.614 34.5515 49.614C33.3295 49.614 32.3726 48.6624 32.3726 47.3407C32.3726 46.018 33.3295 45.0674 34.5515 45.0674C35.1713 45.0674 35.6263 45.3121 35.9279 45.7018V45.1763H36.8754ZM34.6693 45.9548C33.8491 45.9548 33.3472 46.5798 33.3472 47.3407C33.3472 48.1016 33.8491 48.7256 34.6693 48.7256C35.453 48.7256 35.9821 48.1285 35.9821 47.3407C35.9821 46.5529 35.453 45.9548 34.6693 45.9548Z" fill="#231F20"/>
<path d="M31.5336 49.5052V46.7882C31.5336 45.7651 30.8772 45.0768 29.8202 45.0674C29.264 45.0581 28.689 45.2302 28.2883 45.8376C27.9877 45.3577 27.5129 45.0674 26.8472 45.0674C26.3828 45.0674 25.9268 45.2032 25.5709 45.7101V45.1763H24.6234V49.5052H25.5803V47.1054C25.5803 46.3539 25.9998 45.9548 26.6468 45.9548C27.276 45.9548 27.5954 46.3622 27.5954 47.0961V49.5052H28.5523V47.1054C28.5523 46.3539 28.9906 45.9548 29.6188 45.9548C30.2668 45.9548 30.5767 46.3622 30.5767 47.0961V49.5052H31.5336Z" fill="#231F20"/>
</svg>
