<svg width="84" height="58" viewBox="0 0 84 58" fill="none" xmlns="http://www.w3.org/2000/svg">
<rect x="0.5" y="0.5" width="83" height="57" rx="3.5" fill="white" stroke="#F3F3F3"/>
<path d="M77.7464 17.7511H74.5363C74.185 17.7511 73.9014 17.4672 73.9014 17.1154V13.8614C73.9014 13.5096 74.185 13.2256 74.5363 13.2256H77.7464C78.0977 13.2256 78.3813 13.5096 78.3813 13.8614V17.1154C78.3813 17.4672 78.0952 17.7511 77.7464 17.7511Z" fill="#BCCF00"/>
<path d="M73.4669 13.2256H71.2859C71.0474 13.2256 70.8542 13.0322 70.8542 12.7934V10.5822C70.8542 10.3435 71.0474 10.15 71.2859 10.15H73.4669C73.7053 10.15 73.8986 10.3435 73.8986 10.5822V12.7934C73.8986 13.0322 73.7053 13.2256 73.4669 13.2256Z" fill="#BCCF00"/>
<path fill-rule="evenodd" clip-rule="evenodd" d="M9.40218 19.201H14.0729C18.8817 19.201 21.1204 21.3344 21.1179 25.9101C21.1179 30.4884 18.8791 32.6192 14.0704 32.6192H8.65426V38.8635C8.65426 39.8284 8.34556 40.1375 7.3818 40.1375H7.06557C6.10181 40.1375 5.79311 39.8284 5.79311 38.8635V22.8144C5.79311 20.3142 6.90745 19.201 9.40218 19.201ZM14.0705 29.9431C17.5892 29.9431 18.2568 28.5259 18.2568 25.9101C18.2568 22.5631 16.7233 21.9098 14.073 21.9098H9.93939C9.00323 21.9098 8.65688 22.2591 8.65688 23.1938V29.9431H14.0705ZM27.1362 23.8044C25.2865 23.8044 24.1245 24.0356 23.6853 24.1261C22.9073 24.2944 22.581 24.5105 22.581 25.3975V25.6513C22.581 25.9981 22.6312 26.2393 22.7416 26.4077C22.8696 26.6062 23.0779 26.7042 23.3565 26.7042C23.492 26.7042 23.6501 26.6816 23.8384 26.6338C24.2826 26.5232 25.7057 26.2921 27.2592 26.2921C30.0526 26.2921 31.1921 27.066 31.1921 28.9657V30.6593H27.6683C23.1407 30.6593 21.0299 32.1896 21.0299 35.4712C21.0299 38.6574 23.2084 40.4114 27.1613 40.4114C31.8597 40.4114 33.9553 38.8107 33.9553 35.22V28.9657C33.9629 25.4905 31.7292 23.8044 27.1362 23.8044ZM31.1946 35.1245V32.9233H27.7035C24.8976 32.9233 23.8033 33.6369 23.8033 35.4712C23.8033 37.1448 24.8926 37.9564 27.1363 37.9564C30.5295 37.9564 31.1946 36.9186 31.1946 35.1245ZM49.5112 25.5558L45.882 40.0897C44.8179 44.3514 43.0008 46.1807 39.6075 46.4018C39.5197 46.4094 39.4369 46.4144 39.3591 46.4144C38.6287 46.4144 38.3978 46.0098 38.2623 45.359L38.1995 45.0776C38.1368 44.7811 38.0992 44.4469 38.2723 44.2157C38.4405 43.9921 38.7392 43.9267 39.201 43.8865C41.4723 43.6528 42.2428 42.6 43.0008 40.2154C42.6419 40.336 42.2102 40.4013 41.7459 40.4013C39.2486 40.4013 38.581 38.66 38.0188 36.5568L35.0222 25.5634C34.9218 25.1915 34.8565 24.8095 35.0498 24.5557C35.243 24.302 35.622 24.2668 36.0035 24.2668H36.257C37.2007 24.2668 37.5621 24.5457 37.808 25.4578L40.7746 36.3557C41.1586 37.7152 41.5426 37.9463 42.5063 37.9463C43.2919 37.9463 43.7512 37.7026 44.0775 36.3633L46.6952 25.4654C46.9035 24.5608 47.2724 24.2693 48.2161 24.2693H48.4997C48.8787 24.2693 49.2552 24.3045 49.4534 24.5557C49.6492 24.802 49.5965 25.1814 49.5112 25.5558ZM70.8468 25.5005V21.3092C70.8468 19.5277 70.1215 19.206 68.1664 19.206H67.5515C65.5988 19.206 64.8735 19.5302 64.8735 21.3092V25.4779C64.871 25.488 64.871 25.4955 64.871 25.5056V26.4177C64.871 26.4325 64.8704 26.4473 64.8698 26.4623C64.8692 26.478 64.8685 26.494 64.8685 26.5107V32.3303C64.8685 33.0414 64.733 33.6068 64.4494 34.0465C63.9173 34.8682 62.8632 35.2401 61.1766 35.2426C59.4925 35.2401 58.4384 34.8657 57.9063 34.0465C57.6252 33.6068 57.4872 33.0389 57.4872 32.3278V26.5082C57.4872 26.4918 57.4866 26.4768 57.486 26.4617C57.4853 26.4466 57.4847 26.4315 57.4847 26.4152V25.5031C57.4847 25.498 57.4841 25.4936 57.4834 25.4892C57.4828 25.4848 57.4822 25.4804 57.4822 25.4754V21.3092C57.4822 19.5277 56.7569 19.206 54.8042 19.206H54.1893C52.2367 19.206 51.5114 19.5302 51.5114 21.3092V25.5005V29.9105V32.3278C51.5114 34.0993 51.913 35.6019 52.6835 36.8106C54.1743 39.155 57.0605 40.4038 61.1641 40.4038H61.1791H61.1942C65.2977 40.4038 68.1839 39.155 69.6747 36.8106C70.4478 35.6019 70.8468 34.0993 70.8468 32.3278V29.9105V25.5005Z" fill="url(#paint0_linear_0_991)"/>
<path d="M73.0429 23.8396L68.7185 23.8371C68.2467 23.8371 67.8652 23.4552 67.8652 22.9828L67.8677 18.6005C67.8677 18.1281 68.2492 17.7461 68.7211 17.7461L73.0454 17.7486C73.5173 17.7486 73.8988 18.1306 73.8988 18.603L73.8962 22.9853C73.8988 23.4577 73.5148 23.8396 73.0429 23.8396Z" fill="#BCCF00"/>
<defs>
<linearGradient id="paint0_linear_0_991" x1="5.23169" y1="24.9444" x2="5.23169" y2="52.628" gradientUnits="userSpaceOnUse">
<stop stop-color="#BCCF00"/>
<stop offset="1" stop-color="#438F29"/>
</linearGradient>
</defs>
</svg>
