<svg xmlns="http://www.w3.org/2000/svg" width="38" height="18" xmlns:v="https://vecta.io/nano"><defs><linearGradient id="A" x1="100%" x2="0%" y1="27.736%" y2="27.736%"><stop offset="0%" stop-color="#132b90"/><stop offset="100%" stop-color="#192062"/></linearGradient></defs><path fill="url(#A)" fill-rule="evenodd" d="M23.7 9.454a4.24 4.24 0 0 1 1.704.349l-.26 1.794-.17-.094c-.352-.17-.8-.33-1.42-.32-.746 0-1.09.368-1.1.712-.005.39.404.643 1.067 1.027 1.097.6 1.605 1.305 1.597 2.25C25.102 16.89 23.804 18 21.8 18c-.853-.01-1.674-.2-2.12-.44l.266-1.854.247.132c.623.308 1.028.433 1.787.433.545 0 1.13-.253 1.14-.807.002-.363-.246-.622-.988-1.027-.72-.396-1.675-1.06-1.663-2.25.012-1.61 1.332-2.733 3.212-2.733zm6.577.153l1.538 8.273H30.04l-.232-1.24-2.432-.004-.4 1.244H24.98l2.82-7.586c.202-.54.543-.687.998-.687h1.468zM19.7 9.6l-1.2 8.28h-1.9l1.2-8.28h1.9zm-8.268.004c.413.018.746.173.86.697l.667 3.805.198 1.144 1.86-5.642h2.012l-2.99 8.26h-2.012l-1.693-7.217c-.58-.385-1.243-.695-1.983-.908l.018-.142zm17.51 2.236l-.252.8-.757 2.313H29.5l-.44-2.4zm5.79-8.16l.416 2.732 1.13-2.677h.84l-1.846 4.043c-.433.945-.86 1.24-1.518 1.24-.148 0-.23-.017-.305-.04l-.005-.787a1.29 1.29 0 0 0 .387.056c.247 0 .462-.127.607-.405l.112-.254-.72-3.78.9-.127zM7.357 2.4c1.352 0 1.8 1.143 1.605 2.58l-.05.304H6.02C5.942 6.27 6.35 6.7 7.04 6.7c.578 0 1.087-.24 1.634-.63l-.005.986a3.21 3.21 0 0 1-1.883.618c-1.26 0-2.1-.807-1.84-2.632C5.17 3.397 6.184 2.4 7.358 2.4zM28.9 0l-1.036 7.57h-.96l.003-.702c-.376.43-.865.807-1.5.807-.94 0-1.588-.786-1.355-2.495.258-1.888 1.296-2.726 2.34-2.726.43 0 .762.083 1.018.188L27.744.2 28.9 0zm-6.862 2.4c1.35 0 1.8 1.143 1.604 2.58l-.05.304h-2.9c-.08.985.328 1.415 1.018 1.415.578 0 1.086-.24 1.633-.63l-.004.986c-.536.377-1.157.618-1.884.618-1.258 0-2.09-.807-1.84-2.632.226-1.646 1.238-2.642 2.413-2.642zm9.493-.565l-.318 2.327c.254-.254.606-.508 1.037-.508.72 0 1.202.604 1.026 1.9-.193 1.414-.968 2.073-1.985 2.073a3.59 3.59 0 0 1-1.363-.254l.736-5.377.867-.15zM1.34.262l.957 5.547L4.732.335h1.286L2.6 7.602H1.398L0 .514 1.34.262zm17.906 2.244l-.693 5.065h-1.118l.692-5.065h1.12zM17.422.094a2.32 2.32 0 0 1 .451.042l.01 1.028a2.52 2.52 0 0 0-.46-.042c-.383 0-.614.188-.675.64l-.102.744h.857v1.027h-.998l-.552 4.038h-1.1l.553-4.038h-.652l.14-1.027h.652l.12-.87C15.808.514 16.5.094 17.422.094zM12.52 2.4l.006 1.248c-.706.052-1.34.472-1.733 1.017l-.397 2.905h-1.12l.693-5.065h.95l.002 1.017c.378-.587.893-1.08 1.598-1.122zm1.803.105L13.63 7.57h-1.12l.693-5.065h1.12zm17.582 2c-.283 0-.566.215-.817.5l-.238 1.74c.167.07.282.103.522.103.537 0 .912-.365 1.03-1.24.1-.738-.117-1.103-.498-1.103zM26.422 3.46c-.587 0-1.09.535-1.24 1.647-.135.985.175 1.446.67 1.446.4 0 .764-.272 1.12-.69l.298-2.182c-.26-.147-.464-.22-.846-.22zm-4.54-.188c-.448 0-.866.398-1.063 1.226h1.8c.033-.786-.187-1.226-.727-1.226zm-14.67 0c-.448 0-.866.398-1.064 1.226h1.8c.033-.786-.186-1.226-.727-1.226zM14.087.2c.364 0 .62.304.56.734-.057.42-.395.713-.76.713-.373 0-.63-.294-.573-.713.058-.43.398-.734.77-.734zm4.92 0c.364 0 .62.304.562.734-.058.42-.396.713-.76.713-.373 0-.63-.294-.573-.713.06-.43.398-.734.77-.734z"/></svg>